# Blender v2.79 (sub 0) OBJ File: 'schild.blend'
# www.blender.org
o Cube
v -0.024805 1.055075 -0.274918
v -0.035079 1.055075 -0.299723
v -0.000000 1.055075 -0.264644
v -0.024805 1.055075 -0.324528
v 0.024805 1.055075 -0.274918
v -0.000000 1.055075 -0.334802
v 0.035079 1.055075 -0.299723
v 0.024805 1.055075 -0.324528
v 0.024805 1.055075 -0.324528
v 0.035079 1.055075 -0.299723
v -0.000000 1.055075 -0.334802
v 0.024805 1.055075 -0.274918
v -0.035079 1.055075 -0.299723
v -0.000000 1.055075 -0.264644
v -0.024805 1.055075 -0.324528
v -0.024805 1.055075 -0.274918
v -0.000000 -0.698893 -0.299723
v -0.134334 0.860365 -0.346144
v 0.134334 0.860365 -0.346144
v -0.134334 1.249784 -0.346144
v 0.134334 1.249784 -0.346144
v -0.134334 0.860365 -0.330481
v -0.134334 1.249784 -0.330481
v 0.134334 1.249784 -0.330481
v 0.134334 0.860365 -0.330481
v -0.035079 -0.499729 -0.299723
v -0.024804 -0.499729 -0.274918
v 0.000000 -0.499729 -0.264644
v 0.024805 -0.499729 -0.274918
v 0.035080 -0.499729 -0.299723
v 0.024805 -0.499729 -0.324528
v 0.000000 -0.499729 -0.334802
v -0.024804 -0.499729 -0.324528
vt 0.372863 0.578719
vt 0.372317 0.613951
vt 0.371666 0.613734
vt 0.372221 0.578991
vt 0.315877 0.640082
vt 0.292344 0.614764
vt 0.292986 0.614492
vt 0.316131 0.639438
vt 0.315346 0.553400
vt 0.349331 0.553400
vt 0.349077 0.554044
vt 0.315664 0.554020
vt 0.349861 0.640082
vt 0.349543 0.639462
vt 0.292889 0.579531
vt 0.293541 0.579748
vt 0.444102 0.636706
vt 0.409596 0.636706
vt 0.385196 0.612306
vt 0.385196 0.577799
vt 0.409596 0.553400
vt 0.444102 0.553400
vt 0.468502 0.577800
vt 0.468502 0.612306
vt 0.037160 1.987962
vt 0.036793 0.000397
vt 0.071486 0.000384
vt 0.071853 1.987948
vt 0.677908 0.520935
vt 0.657776 0.520935
vt 0.657776 0.020439
vt 0.677907 0.020439
vt 0.312476 0.541067
vt 0.312476 0.520935
vt 0.657776 0.541067
vt 0.312475 0.020439
vt 0.657776 0.000307
vt 0.312475 0.000307
vt 0.292344 0.020439
vt 0.292344 0.520935
vt 0.002468 1.987974
vt 0.002100 0.000409
vt 0.106546 1.987936
vt 0.106179 0.000371
vt 0.140872 0.000358
vt 0.141239 1.987923
vt 0.245318 1.987885
vt 0.244951 0.000319
vt 0.279643 0.000307
vt 0.280011 1.987871
vt 0.175932 1.987910
vt 0.175565 0.000345
vt 0.210258 0.000332
vt 0.210625 1.987897
vt 0.832979 0.004636
vt 0.832979 0.997197
vt 0.148195 0.997197
vt 0.148195 0.004637
vn 0.0000 0.0000 1.0000
vn 0.0000 1.0000 0.0000
vn 0.9239 0.0000 0.3827
vn 1.0000 0.0000 0.0000
vn 0.0000 -1.0000 0.0000
vn -1.0000 -0.0000 0.0000
vn 0.3827 0.0000 0.9239
vn 0.3827 0.0000 -0.9239
vn 0.9239 0.0000 -0.3827
vn -0.3827 -0.0000 0.9239
vn -0.9239 -0.0000 -0.3827
vn -0.9239 -0.0000 0.3827
vn -0.3827 -0.0000 -0.9239
vn 0.0000 0.0000 -1.0000
g Cube_Cube_Material
s off
f 8/1/1 6/2/1 11/3/1 9/4/1
f 2/5/1 16/6/1 1/7/1 13/8/1
f 12/9/1 10/10/1 7/11/1 5/12/1
f 6/2/1 4/13/1 15/14/1 11/3/1
f 16/6/1 14/15/1 3/16/1 1/7/1
f 10/10/1 8/1/1 9/4/1 7/11/1
f 4/17/2 2/18/2 16/19/2 14/20/2 12/21/2 10/22/2 8/23/2 6/24/2
f 5/25/3 29/26/3 30/27/3 7/28/3
f 4/13/1 2/5/1 13/8/1 15/14/1
f 21/29/4 24/30/4 25/31/4 19/32/4
f 20/33/2 23/34/2 24/30/2 21/35/2
f 22/36/1 25/31/1 24/30/1 23/34/1
f 19/37/5 25/31/5 22/36/5 18/38/5
f 18/39/6 22/36/6 23/34/6 20/40/6
f 14/15/1 12/9/1 5/12/1 3/16/1
f 3/41/7 28/42/7 29/26/7 5/25/7
f 9/43/8 31/44/8 32/45/8 11/46/8
f 7/28/9 30/27/9 31/44/9 9/43/9
f 1/47/10 27/48/10 28/49/10 3/50/10
f 15/51/11 33/52/11 26/53/11 13/54/11
f 13/54/12 26/53/12 27/48/12 1/47/12
f 11/46/13 32/45/13 33/52/13 15/51/13
g Cube_Cube_Material.001
f 18/55/14 20/56/14 21/57/14 19/58/14
