{
    "asset" : {
        "generator" : "Khronos glTF Blender I/O v1.1.46",
        "version" : "2.0"
    },
    "scene" : 0,
    "scenes" : [
        {
            "name" : "Scene",
            "nodes" : [
                0,
                1,
                2,
                3,
                4,
                12
            ]
        }
    ],
    "nodes" : [
        {
            "name" : "Sun.003",
            "rotation" : [
                -0.27059808373451233,
                0.6532814502716064,
                0.27059805393218994,
                0.6532815098762512
            ],
            "translation" : [
                -10,
                20,
                0
            ]
        },
        {
            "name" : "Sun.002",
            "rotation" : [
                0.27059808373451233,
                0.6532814502716064,
                0.27059808373451233,
                -0.6532814502716064
            ],
            "translation" : [
                10,
                20,
                0
            ]
        },
        {
            "name" : "Sun.000",
            "rotation" : [
                0,
                0.9238795042037964,
                0.3826834559440613,
                6.975096056294205e-08
            ],
            "translation" : [
                0,
                20,
                10
            ]
        },
        {
            "name" : "Sun.001",
            "rotation" : [
                -0.3826834559440613,
                0,
                0,
                0.9238795042037964
            ],
            "translation" : [
                0,
                20,
                -10
            ]
        },
        {
            "name" : "Camera",
            "rotation" : [
                0,
                0.7071067690849304,
                -0.7071067690849304,
                2.2476459804465776e-08
            ],
            "translation" : [
                0,
                9,
                -40
            ]
        },
        {
            "name" : "Head",
            "translation" : [
                0,
                6.300000190734863,
                0
            ]
        },
        {
            "name" : "Arm_Left",
            "rotation" : [
                1,
                0,
                0,
                0
            ],
            "translation" : [
                -3.1500000953674316,
                5.25,
                0
            ]
        },
        {
            "name" : "Arm_Right",
            "rotation" : [
                1,
                0,
                0,
                0
            ],
            "translation" : [
                3.1500000953674316,
                5.25,
                0
            ]
        },
        {
            "name" : "Leg_Right",
            "rotation" : [
                1,
                0,
                0,
                0
            ],
            "translation" : [
                1.0499999523162842,
                0,
                0
            ]
        },
        {
            "name" : "Leg_Left",
            "rotation" : [
                1,
                0,
                0,
                0
            ],
            "translation" : [
                -1.0499999523162842,
                0,
                0
            ]
        },
        {
            "children" : [
                5,
                6,
                7,
                8,
                9
            ],
            "name" : "Body",
            "translation" : [
                -1.2488968970103542e-08,
                6.300000190734863,
                -4.341129056228965e-07
            ]
        },
        {
            "mesh" : 0,
            "name" : "Player",
            "skin" : 0
        },
        {
            "children" : [
                11,
                10
            ],
            "name" : "Armature"
        }
    ],
    "animations" : [
        {
            "channels" : [
                {
                    "sampler" : 0,
                    "target" : {
                        "node" : 10,
                        "path" : "translation"
                    }
                },
                {
                    "sampler" : 1,
                    "target" : {
                        "node" : 10,
                        "path" : "rotation"
                    }
                },
                {
                    "sampler" : 2,
                    "target" : {
                        "node" : 10,
                        "path" : "scale"
                    }
                },
                {
                    "sampler" : 3,
                    "target" : {
                        "node" : 5,
                        "path" : "translation"
                    }
                },
                {
                    "sampler" : 4,
                    "target" : {
                        "node" : 5,
                        "path" : "rotation"
                    }
                },
                {
                    "sampler" : 5,
                    "target" : {
                        "node" : 5,
                        "path" : "scale"
                    }
                },
                {
                    "sampler" : 6,
                    "target" : {
                        "node" : 6,
                        "path" : "translation"
                    }
                },
                {
                    "sampler" : 7,
                    "target" : {
                        "node" : 6,
                        "path" : "rotation"
                    }
                },
                {
                    "sampler" : 8,
                    "target" : {
                        "node" : 6,
                        "path" : "scale"
                    }
                },
                {
                    "sampler" : 9,
                    "target" : {
                        "node" : 7,
                        "path" : "translation"
                    }
                },
                {
                    "sampler" : 10,
                    "target" : {
                        "node" : 7,
                        "path" : "rotation"
                    }
                },
                {
                    "sampler" : 11,
                    "target" : {
                        "node" : 7,
                        "path" : "scale"
                    }
                },
                {
                    "sampler" : 12,
                    "target" : {
                        "node" : 8,
                        "path" : "translation"
                    }
                },
                {
                    "sampler" : 13,
                    "target" : {
                        "node" : 8,
                        "path" : "rotation"
                    }
                },
                {
                    "sampler" : 14,
                    "target" : {
                        "node" : 8,
                        "path" : "scale"
                    }
                },
                {
                    "sampler" : 15,
                    "target" : {
                        "node" : 9,
                        "path" : "translation"
                    }
                },
                {
                    "sampler" : 16,
                    "target" : {
                        "node" : 9,
                        "path" : "rotation"
                    }
                },
                {
                    "sampler" : 17,
                    "target" : {
                        "node" : 9,
                        "path" : "scale"
                    }
                }
            ],
            "name" : "ArmatureAction",
            "samplers" : [
                {
                    "input" : 7,
                    "interpolation" : "LINEAR",
                    "output" : 8
                },
                {
                    "input" : 7,
                    "interpolation" : "LINEAR",
                    "output" : 9
                },
                {
                    "input" : 7,
                    "interpolation" : "LINEAR",
                    "output" : 10
                },
                {
                    "input" : 7,
                    "interpolation" : "LINEAR",
                    "output" : 11
                },
                {
                    "input" : 7,
                    "interpolation" : "LINEAR",
                    "output" : 12
                },
                {
                    "input" : 7,
                    "interpolation" : "LINEAR",
                    "output" : 13
                },
                {
                    "input" : 7,
                    "interpolation" : "LINEAR",
                    "output" : 14
                },
                {
                    "input" : 7,
                    "interpolation" : "LINEAR",
                    "output" : 15
                },
                {
                    "input" : 7,
                    "interpolation" : "LINEAR",
                    "output" : 16
                },
                {
                    "input" : 7,
                    "interpolation" : "LINEAR",
                    "output" : 17
                },
                {
                    "input" : 7,
                    "interpolation" : "LINEAR",
                    "output" : 18
                },
                {
                    "input" : 7,
                    "interpolation" : "LINEAR",
                    "output" : 19
                },
                {
                    "input" : 7,
                    "interpolation" : "LINEAR",
                    "output" : 20
                },
                {
                    "input" : 7,
                    "interpolation" : "LINEAR",
                    "output" : 21
                },
                {
                    "input" : 7,
                    "interpolation" : "LINEAR",
                    "output" : 22
                },
                {
                    "input" : 7,
                    "interpolation" : "LINEAR",
                    "output" : 23
                },
                {
                    "input" : 7,
                    "interpolation" : "LINEAR",
                    "output" : 24
                },
                {
                    "input" : 7,
                    "interpolation" : "LINEAR",
                    "output" : 25
                }
            ]
        }
    ],
    "materials" : [
        {
            "doubleSided" : true,
            "name" : "Character",
            "pbrMetallicRoughness" : {}
        }
    ],
    "meshes" : [
        {
            "name" : "Cube",
            "primitives" : [
                {
                    "attributes" : {
                        "POSITION" : 0,
                        "NORMAL" : 1,
                        "TEXCOORD_0" : 2,
                        "JOINTS_0" : 3,
                        "WEIGHTS_0" : 4
                    },
                    "indices" : 5,
                    "material" : 0
                }
            ]
        }
    ],
    "skins" : [
        {
            "inverseBindMatrices" : 6,
            "joints" : [
                10,
                5,
                6,
                7,
                8,
                9
            ],
            "name" : "Armature"
        }
    ],
    "accessors" : [
        {
            "bufferView" : 0,
            "componentType" : 5126,
            "count" : 168,
            "max" : [
                4.199999809265137,
                17,
                2.299999237060547
            ],
            "min" : [
                -4.199999809265137,
                -7.983046325767476e-14,
                -2.3000001907348633
            ],
            "type" : "VEC3"
        },
        {
            "bufferView" : 1,
            "componentType" : 5126,
            "count" : 168,
            "type" : "VEC3"
        },
        {
            "bufferView" : 2,
            "componentType" : 5126,
            "count" : 168,
            "type" : "VEC2"
        },
        {
            "bufferView" : 3,
            "componentType" : 5123,
            "count" : 168,
            "type" : "VEC4"
        },
        {
            "bufferView" : 4,
            "componentType" : 5126,
            "count" : 168,
            "type" : "VEC4"
        },
        {
            "bufferView" : 5,
            "componentType" : 5123,
            "count" : 252,
            "type" : "SCALAR"
        },
        {
            "bufferView" : 6,
            "componentType" : 5126,
            "count" : 6,
            "type" : "MAT4"
        },
        {
            "bufferView" : 7,
            "componentType" : 5126,
            "count" : 221,
            "max" : [
                7.333333333333333
            ],
            "min" : [
                0
            ],
            "type" : "SCALAR"
        },
        {
            "bufferView" : 8,
            "componentType" : 5126,
            "count" : 221,
            "type" : "VEC3"
        },
        {
            "bufferView" : 9,
            "componentType" : 5126,
            "count" : 221,
            "type" : "VEC4"
        },
        {
            "bufferView" : 10,
            "componentType" : 5126,
            "count" : 221,
            "type" : "VEC3"
        },
        {
            "bufferView" : 11,
            "componentType" : 5126,
            "count" : 221,
            "type" : "VEC3"
        },
        {
            "bufferView" : 12,
            "componentType" : 5126,
            "count" : 221,
            "type" : "VEC4"
        },
        {
            "bufferView" : 13,
            "componentType" : 5126,
            "count" : 221,
            "type" : "VEC3"
        },
        {
            "bufferView" : 14,
            "componentType" : 5126,
            "count" : 221,
            "type" : "VEC3"
        },
        {
            "bufferView" : 15,
            "componentType" : 5126,
            "count" : 221,
            "type" : "VEC4"
        },
        {
            "bufferView" : 16,
            "componentType" : 5126,
            "count" : 221,
            "type" : "VEC3"
        },
        {
            "bufferView" : 17,
            "componentType" : 5126,
            "count" : 221,
            "type" : "VEC3"
        },
        {
            "bufferView" : 18,
            "componentType" : 5126,
            "count" : 221,
            "type" : "VEC4"
        },
        {
            "bufferView" : 19,
            "componentType" : 5126,
            "count" : 221,
            "type" : "VEC3"
        },
        {
            "bufferView" : 20,
            "componentType" : 5126,
            "count" : 221,
            "type" : "VEC3"
        },
        {
            "bufferView" : 21,
            "componentType" : 5126,
            "count" : 221,
            "type" : "VEC4"
        },
        {
            "bufferView" : 22,
            "componentType" : 5126,
            "count" : 221,
            "type" : "VEC3"
        },
        {
            "bufferView" : 23,
            "componentType" : 5126,
            "count" : 221,
            "type" : "VEC3"
        },
        {
            "bufferView" : 24,
            "componentType" : 5126,
            "count" : 221,
            "type" : "VEC4"
        },
        {
            "bufferView" : 25,
            "componentType" : 5126,
            "count" : 221,
            "type" : "VEC3"
        }
    ],
    "bufferViews" : [
        {
            "buffer" : 0,
            "byteLength" : 2016,
            "byteOffset" : 0
        },
        {
            "buffer" : 0,
            "byteLength" : 2016,
            "byteOffset" : 2016
        },
        {
            "buffer" : 0,
            "byteLength" : 1344,
            "byteOffset" : 4032
        },
        {
            "buffer" : 0,
            "byteLength" : 1344,
            "byteOffset" : 5376
        },
        {
            "buffer" : 0,
            "byteLength" : 2688,
            "byteOffset" : 6720
        },
        {
            "buffer" : 0,
            "byteLength" : 504,
            "byteOffset" : 9408
        },
        {
            "buffer" : 0,
            "byteLength" : 384,
            "byteOffset" : 9912
        },
        {
            "buffer" : 0,
            "byteLength" : 884,
            "byteOffset" : 10296
        },
        {
            "buffer" : 0,
            "byteLength" : 2652,
            "byteOffset" : 11180
        },
        {
            "buffer" : 0,
            "byteLength" : 3536,
            "byteOffset" : 13832
        },
        {
            "buffer" : 0,
            "byteLength" : 2652,
            "byteOffset" : 17368
        },
        {
            "buffer" : 0,
            "byteLength" : 2652,
            "byteOffset" : 20020
        },
        {
            "buffer" : 0,
            "byteLength" : 3536,
            "byteOffset" : 22672
        },
        {
            "buffer" : 0,
            "byteLength" : 2652,
            "byteOffset" : 26208
        },
        {
            "buffer" : 0,
            "byteLength" : 2652,
            "byteOffset" : 28860
        },
        {
            "buffer" : 0,
            "byteLength" : 3536,
            "byteOffset" : 31512
        },
        {
            "buffer" : 0,
            "byteLength" : 2652,
            "byteOffset" : 35048
        },
        {
            "buffer" : 0,
            "byteLength" : 2652,
            "byteOffset" : 37700
        },
        {
            "buffer" : 0,
            "byteLength" : 3536,
            "byteOffset" : 40352
        },
        {
            "buffer" : 0,
            "byteLength" : 2652,
            "byteOffset" : 43888
        },
        {
            "buffer" : 0,
            "byteLength" : 2652,
            "byteOffset" : 46540
        },
        {
            "buffer" : 0,
            "byteLength" : 3536,
            "byteOffset" : 49192
        },
        {
            "buffer" : 0,
            "byteLength" : 2652,
            "byteOffset" : 52728
        },
        {
            "buffer" : 0,
            "byteLength" : 2652,
            "byteOffset" : 55380
        },
        {
            "buffer" : 0,
            "byteLength" : 3536,
            "byteOffset" : 58032
        },
        {
            "buffer" : 0,
            "byteLength" : 2652,
            "byteOffset" : 61568
        }
    ],
    "buffers" : [
        {
            "byteLength" : 64220,
            "uri" : "data:application/octet-stream;base64,"
        }
    ]
}
